<svg width="290" height="309" viewBox="0 0 290 309" fill="none" xmlns="http://www.w3.org/2000/svg">
<path d="M144.596 0C103.788 0 70.7053 32.6828 70.7053 72.997C70.7053 113.311 103.788 145.994 144.596 145.994C185.403 145.994 218.486 113.311 218.486 72.997C218.486 32.6828 185.403 0 144.596 0ZM189.344 99.2206C193.342 91.8679 195.608 83.4682 195.608 74.5392H121.79V66.4297H194.972C194.442 42.5536 169.141 22.314 142.738 22.314C123.152 22.314 105.459 32.5575 96.3311 48.1932L86.6678 43.5836C97.9959 26.0586 118.892 14.3097 142.804 14.3097C178.779 14.3097 207.939 37.5968 207.939 73.7453C207.939 82.8593 205.11 91.498 201.087 99.2206H189.344Z" fill="#1257FF"/>
<path d="M57.3635 96.7722V180.388C56.7384 180.405 56.1134 180.414 55.4884 180.414C24.8394 180.414 0 161.685 0 138.58C0 115.475 24.8394 96.7466 55.4884 96.7466C56.1134 96.7466 56.7384 96.7551 57.3635 96.7722Z" fill="#1257FF"/>
<path d="M61.1409 96.7476L145.216 179.806H61.1409V96.7476Z" fill="#1257FF"/>
<path d="M142.722 183.538V308.943C98.0487 303.508 61.9186 251.94 61.6709 183.538H142.722Z" fill="#1257FF"/>
<path d="M232.424 96.7732V180.389C233.049 180.406 233.674 180.415 234.299 180.415C264.948 180.415 289.788 161.686 289.788 138.581C289.788 115.476 264.948 96.7476 234.299 96.7476C233.674 96.7476 233.049 96.7561 232.424 96.7732Z" fill="#1257FF"/>
<path d="M228.699 96.7476L144.624 179.806H228.699V96.7476Z" fill="#1257FF"/>
<path d="M147.093 183.538V308.943C191.766 303.508 227.896 251.94 228.144 183.538H147.093Z" fill="#1257FF"/>
</svg>
